<svg xmlns="http://www.w3.org/2000/svg" viewBox="0 0 17.79 17.79"><defs><style>.cls-1{fill:#2d92d5;}</style></defs><g id="Capa_2" data-name="Capa 2"><g id="Capa_2-2" data-name="Capa 2"><path class="cls-1" d="M16.12,0H1.67A1.67,1.67,0,0,0,0,1.67V16.12a1.67,1.67,0,0,0,1.67,1.67H16.12a1.67,1.67,0,0,0,1.67-1.67V1.67A1.67,1.67,0,0,0,16.12,0ZM14.07,5.15,8,13.53a.78.78,0,0,1-.56.31.79.79,0,0,1-.6-.22l-3-3a.75.75,0,0,1,0-1.07.76.76,0,0,1,1.08,0l2.41,2.41,5.57-7.65a.75.75,0,0,1,1.06-.17h0A.75.75,0,0,1,14.07,5.15Z"/></g></g></svg>