<svg xmlns="http://www.w3.org/2000/svg" viewBox="0 0 19.1 19.2"><defs><style>.cls-1{fill:#161615;}</style></defs><g id="Capa_2" data-name="Capa 2"><g id="Capa_1-2" data-name="Capa 1"><rect class="cls-1" x="4.24" y="6.41" width="2.75" height="2.75"/><rect class="cls-1" x="8.58" y="6.41" width="5.61" height="2.75"/><polygon class="cls-1" points="19.1 17.47 16.93 15.3 18.97 13.26 17.36 11.66 15.33 13.7 13.16 11.53 11.56 13.13 13.72 15.3 11.42 17.6 13.03 19.2 15.33 16.9 17.5 19.07 19.1 17.47"/><path class="cls-1" d="M17.52,0H.87A.87.87,0,0,0,0,.87V14.71a.87.87,0,0,0,.87.87H9.45V13.52H2.19V2.24H16.31V9.52h2.08V.87A.87.87,0,0,0,17.52,0Z"/></g></g></svg>