<svg xmlns="http://www.w3.org/2000/svg" viewBox="0 0 23.31 22.97"><defs><style>.cls-1{fill:#161615;}</style></defs><g id="Capa_2" data-name="Capa 2"><g id="Capa_1-2" data-name="Capa 1"><rect class="cls-1" x="8.45" y="10.18" width="2.75" height="2.75"/><rect class="cls-1" x="12.78" y="10.18" width="5.61" height="2.75"/><polygon class="cls-1" points="23.31 21.23 21.14 19.06 23.18 17.03 21.57 15.42 19.54 17.46 17.37 15.29 15.76 16.89 17.93 19.06 15.63 21.36 17.23 22.97 19.54 20.67 21.7 22.84 23.31 21.23"/><path class="cls-1" d="M17.52,0H.87A.87.87,0,0,0,0,.87V13.52H2.19V2.24h16.2V.87A.87.87,0,0,0,17.52,0Z"/><path class="cls-1" d="M21.73,3.77H5.08a.87.87,0,0,0-.87.87V18.47a.87.87,0,0,0,.87.87h8.58V17.28H6.39V6H20.52v7.29H22.6V4.64A.87.87,0,0,0,21.73,3.77Z"/></g></g></svg>