<svg xmlns="http://www.w3.org/2000/svg" viewBox="0 0 24.6 15.96"><defs><style>.cls-1{fill:#161615;}</style></defs><g id="Capa_2" data-name="Capa 2"><g id="Capa_2-2" data-name="Capa 2"><path class="cls-1" d="M6.42,8.65V13.1H5.15v-1a2.74,2.74,0,0,1-2.42,1.06C1.06,13.19,0,12.29,0,11S.77,8.86,3,8.86H5.08V8.59c0-1.12-.65-1.78-2-1.78A3.76,3.76,0,0,0,.77,7.6l-.56-1a4.9,4.9,0,0,1,3.05-.94C5.27,5.66,6.42,6.63,6.42,8.65Zm-1.34,2.2v-1H3c-1.32,0-1.7.51-1.7,1.14s.61,1.2,1.63,1.2A2.14,2.14,0,0,0,5.08,10.85Z"/><path class="cls-1" d="M17.7,9.35A3.68,3.68,0,0,1,21.6,5.6a3.27,3.27,0,0,1,3,1.57l-1,.65a2.31,2.31,0,0,0-2-1.06,2.45,2.45,0,0,0-2.53,2.59A2.45,2.45,0,0,0,21.58,12a2.31,2.31,0,0,0,2-1.06l1,.64a3.28,3.28,0,0,1-3,1.58A3.7,3.7,0,0,1,17.7,9.35Z"/><path class="cls-1" d="M7.44,0V16H17V0Zm4.87,13.18a3.14,3.14,0,0,1-2.63-1.25V13.1H8.4V2.77H9.74V6.84a3.12,3.12,0,0,1,2.57-1.19A3.58,3.58,0,0,1,16,9.41,3.59,3.59,0,0,1,12.31,13.18Z"/><path class="cls-1" d="M12.2,6.82A2.43,2.43,0,0,0,9.73,9.41a2.48,2.48,0,1,0,5,0A2.43,2.43,0,0,0,12.2,6.82Z"/></g></g></svg>