<svg xmlns="http://www.w3.org/2000/svg" viewBox="0 0 24.66 15.96"><defs><style>.cls-1{fill:#161615;}</style></defs><g id="Capa_2" data-name="Capa 2"><g id="Capa_2-2" data-name="Capa 2"><path class="cls-1" d="M6.42,7.62v4.45H5.15v-1a2.74,2.74,0,0,1-2.42,1.06C1.06,12.15,0,11.26,0,10S.77,7.82,3,7.82H5.08V7.56c0-1.13-.65-1.78-2-1.78a3.7,3.7,0,0,0-2.33.79l-.56-1a4.91,4.91,0,0,1,3.05-1C5.27,4.62,6.42,5.6,6.42,7.62ZM5.08,9.81v-1H3c-1.32,0-1.7.52-1.7,1.15S1.93,11.12,3,11.12A2.14,2.14,0,0,0,5.08,9.81Z"/><path class="cls-1" d="M12.69,5.79a2.44,2.44,0,0,0-2.48,2.59,2.49,2.49,0,1,0,5,0A2.43,2.43,0,0,0,12.69,5.79Z"/><path class="cls-1" d="M8.28,0V16H24.66V0ZM12.8,12.15a3.14,3.14,0,0,1-2.63-1.25v1.17H8.89V1.74h1.34V5.81A3.12,3.12,0,0,1,12.8,4.62a3.58,3.58,0,0,1,3.73,3.76A3.59,3.59,0,0,1,12.8,12.15ZM21.58,11a2.3,2.3,0,0,0,2-1.05l1,.64a3.28,3.28,0,0,1-3,1.58,3.7,3.7,0,0,1-3.9-3.77,3.69,3.69,0,0,1,3.9-3.76,3.28,3.28,0,0,1,3,1.58l-1,.65a2.31,2.31,0,0,0-2-1.06,2.45,2.45,0,0,0-2.53,2.59A2.44,2.44,0,0,0,21.58,11Z"/></g></g></svg>