<svg xmlns="http://www.w3.org/2000/svg" viewBox="0 0 24.71 15.96"><defs><style>.cls-1{fill:#010201;}</style></defs><g id="Capa_2" data-name="Capa 2"><g id="Capa_2-2" data-name="Capa 2"><path class="cls-1" d="M0,0V7.71H5.13V7.56c0-1.13-.65-1.78-2-1.78a3.71,3.71,0,0,0-2.34.79l-.56-1a5,5,0,0,1,3.05-1c2,0,3.16,1,3.16,3v.09H9v-6h1.33V5.81a3.14,3.14,0,0,1,2.58-1.19,3.55,3.55,0,0,1,3.67,3.09h1.29a3.68,3.68,0,0,1,3.83-3.09,3.31,3.31,0,0,1,3,1.58l-1,.65a2.3,2.3,0,0,0-2-1.06,2.4,2.4,0,0,0-2.45,1.92h5.52V0Z"/><path class="cls-1" d="M12.75,5.79a2.37,2.37,0,0,0-2.4,1.92h4.81A2.38,2.38,0,0,0,12.75,5.79Z"/><path class="cls-1" d="M0,8.78V16H24.71V8.78H0Zm19.14,0a2.41,2.41,0,0,0,2.5,2.2,2.29,2.29,0,0,0,2-1.05l1,.64a3.31,3.31,0,0,1-3,1.58,3.68,3.68,0,0,1-3.86-3.37ZM9,8.78H10.3a2.46,2.46,0,0,0,4.9,0h1.35a3.55,3.55,0,0,1-3.69,3.37,3.12,3.12,0,0,1-2.63-1.25v1.17H9Zm-8.54,0H3.07c-1.32,0-1.69.52-1.69,1.15S2,11.12,3,11.12A2.13,2.13,0,0,0,5.13,9.81v-1H6.47v3.29H5.2v-1a2.72,2.72,0,0,1-2.42,1.06C1.11,12.15.05,11.26.05,10A2,2,0,0,1,.41,8.78Z"/></g></g></svg>