<svg xmlns="http://www.w3.org/2000/svg" viewBox="0 0 24.66 15.96"><defs><style>.cls-1{fill:#161615;}</style></defs><g id="Capa_2" data-name="Capa 2"><g id="Capa_2-2" data-name="Capa 2"><path class="cls-1" d="M1.38,9.93c0,.73.61,1.19,1.62,1.19A2.13,2.13,0,0,0,5.13,9.81v-1H3.07C1.75,8.78,1.38,9.3,1.38,9.93Z"/><path class="cls-1" d="M12.75,5.79a2.43,2.43,0,0,0-2.48,2.59,2.49,2.49,0,1,0,5,0A2.43,2.43,0,0,0,12.75,5.79Z"/><path class="cls-1" d="M0,0V16H16.59V8.38a3.59,3.59,0,0,1-3.73,3.77,3.12,3.12,0,0,1-2.63-1.25v1.17H9V1.74h1.33V5.81a3.14,3.14,0,0,1,2.58-1.19,3.59,3.59,0,0,1,3.73,3.76V0ZM6.47,12.07H5.2v-1a2.72,2.72,0,0,1-2.42,1.06C1.11,12.15.05,11.26.05,10S.82,7.82,3,7.82H5.13V7.56c0-1.13-.65-1.78-2-1.78a3.71,3.71,0,0,0-2.34.79l-.56-1a5,5,0,0,1,3.05-1c2,0,3.16,1,3.16,3Z"/><path class="cls-1" d="M17.76,8.38a3.68,3.68,0,0,1,3.89-3.76,3.31,3.31,0,0,1,3,1.58l-1,.65a2.3,2.3,0,0,0-2-1.06,2.45,2.45,0,0,0-2.53,2.59A2.44,2.44,0,0,0,21.64,11a2.29,2.29,0,0,0,2-1.05l1,.64a3.31,3.31,0,0,1-3,1.58A3.69,3.69,0,0,1,17.76,8.38Z"/></g></g></svg>